<svg width="80" height="64" viewBox="0 0 80 64" fill="none" xmlns="http://www.w3.org/2000/svg">
<g opacity="0.2" filter="url(#filter0_b)">
<circle cx="30" cy="34" r="30" fill="url(#paint0_linear)"/>
</g>
<path d="M38.1094 19.7813L36.5781 19.4688C36.4637 20.0345 36.4061 20.6103 36.4063 21.1875H37.9687C37.9688 20.7152 38.0159 20.2442 38.1094 19.7813Z" fill="#1E304E" stroke="#1E304E" stroke-width="0.2"/>
<path d="M44.9992 14.1563V12.5938C43.3268 12.5934 41.6905 13.0811 40.2912 13.997C38.8918 14.9128 37.7901 16.2172 37.1211 17.75L38.5531 18.375C39.1005 17.1208 40.002 16.0536 41.147 15.3042C42.292 14.5549 43.6308 14.1559 44.9992 14.1563Z" fill="#1E304E" stroke="#1E304E" stroke-width="0.2"/>
<path d="M65.2089 30.9531L65.2026 30.957C65.1133 30.7951 64.9689 30.6706 64.7956 30.6062L55.8487 27.3882C56.9365 25.4873 57.5058 23.334 57.4994 21.1438C57.4931 18.9537 56.9115 16.8037 55.8128 14.9091C54.7141 13.0144 53.1369 11.4418 51.2391 10.3485C49.3413 9.25525 47.1896 8.67981 44.9995 8.67981C42.8094 8.67981 40.6577 9.25525 38.7599 10.3485C36.8621 11.4418 35.2849 13.0144 34.1862 14.9091C33.0875 16.8037 32.5059 18.9537 32.4996 21.1438C32.4932 23.334 33.0625 25.4873 34.1503 27.3882L25.2034 30.6093C25.0301 30.6737 24.8857 30.7982 24.7964 30.9601L24.7901 30.9531L21.6651 36.4218C21.6087 36.5208 21.5746 36.6308 21.5652 36.7444C21.5558 36.8579 21.5713 36.9721 21.6107 37.0789C21.65 37.1858 21.7123 37.2828 21.7931 37.3631C21.8739 37.4434 21.9713 37.505 22.0784 37.5437L24.687 38.4859V44.6249C24.6871 44.7856 24.7368 44.9423 24.8292 45.0737C24.9216 45.2051 25.0523 45.3049 25.2034 45.3593L44.7347 52.3906C44.9057 52.453 45.0933 52.453 45.2643 52.3906L64.7956 45.3593C64.9467 45.3049 65.0774 45.2051 65.1698 45.0737C65.2622 44.9423 65.3119 44.7856 65.312 44.6249V38.4859L67.9206 37.5484C68.0277 37.5097 68.1251 37.4481 68.2059 37.3678C68.2867 37.2875 68.349 37.1905 68.3883 37.0836C68.4277 36.9768 68.4432 36.8626 68.4338 36.749C68.4244 36.6355 68.3903 36.5254 68.3339 36.4265L65.2089 30.9531ZM62.2237 31.3437L52.0308 35.0156V31.5093C53.1508 30.7465 54.1401 29.8075 54.9604 28.7289L62.2237 31.3437ZM34.062 21.1874C34.0599 19.285 34.554 17.4149 35.4956 15.7618C36.4372 14.1086 37.7937 12.7297 39.4312 11.7612C41.0687 10.7926 42.9304 10.268 44.8327 10.2389C46.7349 10.2099 48.6119 10.6776 50.2781 11.5958C51.9443 12.5139 53.3423 13.8508 54.3339 15.4744C55.3255 17.0981 55.8764 18.9522 55.9323 20.8539C55.9882 22.7555 55.5471 24.6389 54.6525 26.3179C53.758 27.997 52.441 29.4136 50.8315 30.4281C50.7202 30.4986 50.6286 30.596 50.565 30.7115C50.5015 30.8269 50.4682 30.9565 50.4683 31.0882V35.5757L48.9058 36.1382V25.8749C48.9036 25.7541 48.8728 25.6355 48.8159 25.5289H48.8237L45.6987 19.2789C45.6265 19.1578 45.5241 19.0575 45.4016 18.9879C45.279 18.9183 45.1405 18.8817 44.9995 18.8817C44.8585 18.8817 44.72 18.9183 44.5974 18.9879C44.4749 19.0575 44.3725 19.1578 44.3003 19.2789L41.1753 25.5289H41.1831C41.1262 25.6355 41.0954 25.7541 41.0933 25.8749V36.1382L39.5308 35.5757V31.0882C39.5308 30.9565 39.4975 30.8269 39.434 30.7115C39.3704 30.596 39.2788 30.4986 39.1675 30.4281C37.6027 29.4472 36.3131 28.0844 35.42 26.4679C34.5269 24.8514 34.0595 23.0343 34.062 21.1874ZM35.0386 28.7289C35.8589 29.8075 36.8482 30.7465 37.9683 31.5093V35.0156L27.7753 31.3437L35.0386 28.7289ZM23.4831 36.3921L25.8214 32.3007L43.8597 38.7945L41.5214 42.8859L23.4831 36.3921ZM44.2183 50.5445L26.2495 44.0781V39.0484L41.6097 44.5781C41.6945 44.6092 41.7841 44.6251 41.8745 44.6249C42.0119 44.6252 42.1469 44.5892 42.266 44.5207C42.3851 44.4521 42.4839 44.3533 42.5526 44.2343L44.2183 41.3163V50.5445ZM44.2183 37.2632L42.6558 36.7007V26.6562H44.2183V37.2632ZM43.1386 25.0937L44.9995 21.3718L46.8604 25.0937H43.1386ZM47.3433 26.6562V36.7007L45.7808 37.2632V26.6562H47.3433ZM63.7495 44.0781L45.7808 50.5468V41.3163L47.4464 44.2343C47.5377 44.3938 47.6822 44.516 47.8547 44.5795C48.0272 44.6429 48.2165 44.6435 48.3893 44.5812L63.7495 39.0484V44.0781ZM48.4776 42.8859L46.1393 38.7945L64.1776 32.3007L66.5159 36.3921L48.4776 42.8859Z" fill="#1E304E" stroke="#1E304E" stroke-width="0.2"/>
<path d="M30.4676 15.4313C29.1192 18.8496 29.0133 22.6327 30.1683 26.1211L31.6527 25.6289C30.6133 22.4887 30.7087 19.0834 31.9223 16.0063L30.4676 15.4313Z" fill="#1E304E" stroke="#1E304E" stroke-width="0.2"/>
<path d="M60.625 21.1875C60.6248 20.6395 60.5963 20.0919 60.5398 19.5469L58.9844 19.7031C59.0364 20.1962 59.0625 20.6917 59.0625 21.1875H60.625Z" fill="#1E304E" stroke="#1E304E" stroke-width="0.2"/>
<path d="M47.466 5.75623L47.2207 7.29919C50.0163 7.75509 52.6104 9.04074 54.6662 10.9893C56.722 12.9379 58.1447 15.4593 58.7496 18.2265L60.2777 17.8984C59.6051 14.8236 58.0239 12.0219 55.7394 9.85682C53.4549 7.6917 50.5724 6.26305 47.466 5.75623Z" fill="#1E304E" stroke="#1E304E" stroke-width="0.2"/>
<defs>
<filter id="filter0_b" x="-2" y="2" width="64" height="64" filterUnits="userSpaceOnUse" color-interpolation-filters="sRGB">
<feFlood flood-opacity="0" result="BackgroundImageFix"/>
<feGaussianBlur in="BackgroundImage" stdDeviation="1"/>
<feComposite in2="SourceAlpha" operator="in" result="effect1_backgroundBlur"/>
<feBlend mode="normal" in="SourceGraphic" in2="effect1_backgroundBlur" result="shape"/>
</filter>
<linearGradient id="paint0_linear" x1="1.10357e-07" y1="37.7113" x2="60" y2="38.3299" gradientUnits="userSpaceOnUse">
<stop stop-color="#00AFF0"/>
<stop offset="1" stop-color="#00AFF0" stop-opacity="0"/>
</linearGradient>
</defs>
</svg>
