<svg width="69" height="60" viewBox="0 0 69 60" fill="none" xmlns="http://www.w3.org/2000/svg">
<g opacity="0.2" filter="url(#filter0_b)">
<circle cx="30" cy="30" r="30" fill="url(#paint0_linear)"/>
</g>
<path d="M43.9989 37.7208C47.2341 37.7208 49.9547 35.0737 49.9547 31.8384C49.9547 28.6031 47.3077 25.9561 43.9989 25.9561C40.7636 25.9561 38.043 28.6031 38.043 31.8384C38.043 35.1472 40.7636 37.7208 43.9989 37.7208ZM43.9989 27.5002C46.4253 27.5002 48.4841 29.4855 48.4841 31.9119C48.4841 34.3384 46.4989 36.3237 43.9989 36.3237C41.5724 36.3237 39.5136 34.3384 39.5136 31.9119C39.5136 29.4855 41.5724 27.5002 43.9989 27.5002Z" fill="#1E304E" stroke="#1E304E" stroke-width="0.5"/>
<path d="M39.8807 14.853L39.1455 19.0442C39.0719 19.3383 39.219 19.6324 39.4396 19.7795C39.6602 19.9266 39.9543 20.0001 40.2484 19.853L44.0719 17.8677L47.8955 19.853C48.116 20.0001 48.4102 19.9266 48.7043 19.7795C48.9249 19.6324 49.0719 19.3383 48.9984 19.0442L48.2631 14.853L51.3513 11.8383C51.5719 11.6177 51.6455 11.3236 51.5719 11.103C51.4984 10.8089 51.2778 10.6619 50.9837 10.5883L46.719 10.0001L44.8072 6.17656C44.5866 5.66185 43.7043 5.66185 43.4837 6.17656L41.5719 10.0001L37.3072 10.5883C37.0131 10.6619 36.7925 10.8089 36.719 11.103C36.6455 11.3971 36.719 11.6913 36.9396 11.8383L39.8807 14.853ZM42.0131 11.3971C42.2337 11.3971 42.4543 11.1766 42.6013 11.0295L43.9984 8.08832L45.3955 10.956C45.469 11.1766 45.6896 11.3236 45.9837 11.3236L49.1455 11.8383L46.866 14.0442C46.719 14.1913 46.6454 14.4854 46.6454 14.706L47.1602 17.8677L44.366 16.3971C44.2925 16.3236 44.1455 16.3236 43.9984 16.3236C43.8513 16.3236 43.7778 16.3236 43.6307 16.3971L40.8366 17.8677L41.3513 14.706C41.4249 14.4854 41.2778 14.1913 41.1307 14.0442L38.8513 11.8383L42.0131 11.3971Z" fill="#1E304E" stroke="#1E304E" stroke-width="0.5"/>
<path d="M31.7199 23.8972C31.9405 23.7501 32.0875 23.456 32.014 23.1619L31.2787 18.9707L34.367 15.956C34.5875 15.7354 34.6611 15.4413 34.5875 15.2207C34.514 14.9266 34.2934 14.7795 33.9993 14.706L29.7346 14.1178L27.8228 10.2207C27.6758 10.0001 27.4552 9.77954 27.1611 9.77954C26.867 9.77954 26.6464 9.9266 26.4993 10.2207L24.5875 14.0442L20.3228 14.6325C20.0287 14.706 19.8081 14.8531 19.7346 15.1472C19.6611 15.4413 19.7346 15.7354 19.9552 15.8825L23.0434 18.9707L22.3081 23.1619C22.2346 23.456 22.3817 23.7501 22.6023 23.8972C22.8228 24.0442 23.117 24.1178 23.4111 23.9707L27.2346 21.9854L31.0581 23.9707C31.2052 24.1178 31.4993 24.0442 31.7199 23.8972ZM27.5287 20.4413C27.3081 20.2942 27.0875 20.2942 26.867 20.4413L24.0728 21.9119L24.5875 18.7501C24.6611 18.5295 24.514 18.2354 24.367 18.0884L22.0875 15.8825L25.2493 15.4413C25.4699 15.4413 25.6905 15.2207 25.8375 15.0737L27.2346 12.206L28.6317 15.0737C28.7052 15.2942 28.9258 15.4413 29.2199 15.4413L32.3817 15.8825L30.1023 18.0884C29.9552 18.2354 29.8817 18.5295 29.8817 18.7501L30.3964 21.9119L27.5287 20.4413Z" fill="#1E304E" stroke="#1E304E" stroke-width="0.5"/>
<path d="M68.2633 15.2207C68.1898 14.9266 67.9692 14.7795 67.6751 14.706L63.4104 14.1178L61.4986 10.2942C61.278 9.77953 60.3957 9.77953 60.1751 10.2942L58.2633 14.1178L53.9986 14.706C53.7045 14.7795 53.4839 14.9266 53.4104 15.2207C53.3369 15.5148 53.4104 15.8089 53.631 15.956L56.7192 18.9707L55.9839 23.1619C55.9104 23.456 56.0574 23.7501 56.278 23.8972C56.4986 24.0442 56.7927 24.1178 57.0869 23.9707L60.9104 21.9854L64.7339 23.9707C64.9545 24.1178 65.2486 24.0442 65.5427 23.8972C65.7633 23.7501 65.9104 23.456 65.8369 23.1619L65.1016 18.9707L68.1898 15.956C68.2633 15.7354 68.3369 15.4413 68.2633 15.2207ZM63.631 18.1619C63.4839 18.3089 63.4104 18.6031 63.4104 18.8236L63.9251 21.9854L61.131 20.5148C61.0574 20.4413 60.9104 20.4413 60.7633 20.4413C60.6163 20.4413 60.5427 20.4413 60.3957 20.5148L57.6016 21.9854L58.1163 18.8236C58.1898 18.6031 58.0427 18.3089 57.8957 18.1619L55.6163 15.956L58.778 15.5148C58.9986 15.5148 59.2192 15.2942 59.3663 15.1472L60.7633 12.2795L62.1604 15.1472C62.2339 15.3678 62.4545 15.5148 62.7486 15.5148L65.9104 15.956L63.631 18.1619Z" fill="#1E304E" stroke="#1E304E" stroke-width="0.5"/>
<path d="M57.8231 36.9854C57.6025 36.9854 57.3819 36.9854 57.1613 36.9854C57.3084 36.1766 57.3819 35.2942 57.3819 34.4119C57.3819 27.059 51.3525 21.0295 43.9995 21.0295C36.6466 21.0295 30.6172 26.9854 30.6172 34.4119C30.6172 41.7648 36.5731 47.7943 43.9995 47.7943C45.8378 47.7943 47.6025 47.4266 49.2937 46.6913C49.8084 50.956 53.4113 54.2648 57.8231 54.2648C62.6025 54.2648 66.426 50.3678 66.426 45.6619C66.426 40.8825 62.6025 36.9854 57.8231 36.9854ZM43.9995 22.5737C50.5437 22.5737 55.9113 27.8678 55.9113 34.4854C55.9113 35.4413 55.7642 36.3972 55.5437 37.2795C53.926 37.7207 52.4554 38.6766 51.3525 39.9266C49.9554 38.7501 48.2642 38.1619 46.426 38.1619H41.5731C38.779 38.1619 36.2054 39.706 34.8819 42.1325C33.1172 40.0001 32.0878 37.3531 32.0878 34.559C32.0878 27.9413 37.4554 22.5737 43.9995 22.5737ZM35.9848 43.2354C37.0142 41.0295 39.1466 39.6325 41.5731 39.6325H46.426C47.9701 39.6325 49.3672 40.1472 50.4701 41.1031C49.7348 42.2795 49.2937 43.6766 49.2201 45.1472C44.8819 47.2795 39.6613 46.6178 35.9848 43.2354ZM57.8231 52.7943C53.8525 52.7943 50.6907 49.559 50.6907 45.6619C50.6907 41.7648 53.926 38.5295 57.8231 38.5295C61.7201 38.5295 64.9554 41.7648 64.9554 45.6619C64.9554 49.559 61.7937 52.7943 57.8231 52.7943Z" fill="#1E304E" stroke="#1E304E" stroke-width="0.5"/>
<path d="M61.9413 42.4267L56.5736 47.1325L54.5148 44.7061C54.2207 44.412 53.7795 44.3384 53.4854 44.6325C53.1913 44.9267 53.1177 45.3678 53.4118 45.662L55.9118 48.6767C56.0589 48.8237 56.206 48.8973 56.4265 48.9708C56.6471 48.9708 56.7942 48.8973 56.9413 48.8237L62.8971 43.6031C63.1913 43.309 63.2648 42.8678 62.9707 42.5737C62.6765 42.2061 62.2354 42.2061 61.9413 42.4267Z" fill="#1E304E" stroke="#1E304E" stroke-width="0.5"/>
<defs>
<filter id="filter0_b" x="-2" y="-2" width="64" height="64" filterUnits="userSpaceOnUse" color-interpolation-filters="sRGB">
<feFlood flood-opacity="0" result="BackgroundImageFix"/>
<feGaussianBlur in="BackgroundImage" stdDeviation="1"/>
<feComposite in2="SourceAlpha" operator="in" result="effect1_backgroundBlur"/>
<feBlend mode="normal" in="SourceGraphic" in2="effect1_backgroundBlur" result="shape"/>
</filter>
<linearGradient id="paint0_linear" x1="1.10357e-07" y1="33.7113" x2="60" y2="34.3299" gradientUnits="userSpaceOnUse">
<stop stop-color="#00AFF0"/>
<stop offset="1" stop-color="#00AFF0" stop-opacity="0"/>
</linearGradient>
</defs>
</svg>
