<svg width="68" height="60" viewBox="0 0 68 60" fill="none" xmlns="http://www.w3.org/2000/svg">
<g opacity="0.2" filter="url(#filter0_b)">
<circle cx="30" cy="30" r="30" fill="url(#paint0_linear)"/>
</g>
<path d="M60.239 16.4399C60.4592 16.4402 60.6736 16.3694 60.8504 16.2382L63.4714 14.2989C63.6909 14.1366 63.8369 13.8937 63.8773 13.6237C63.9177 13.3538 63.8492 13.0788 63.6868 12.8593C63.5245 12.6399 63.2816 12.4939 63.0116 12.4535C62.7416 12.4131 62.4667 12.4816 62.2472 12.6439L59.6262 14.5831C59.452 14.712 59.3229 14.8925 59.2573 15.099C59.1917 15.3056 59.1929 15.5275 59.2609 15.7333C59.3288 15.939 59.4599 16.1181 59.6355 16.245C59.8111 16.3719 60.0223 16.4401 60.239 16.4399V16.4399Z" fill="#1E304E"/>
<path d="M56.8585 12.8752C57.129 12.8985 57.398 12.8159 57.6088 12.6447C57.8196 12.4736 57.9557 12.2273 57.9884 11.9577L58.3528 8.4502C58.3668 8.31576 58.3541 8.17989 58.3156 8.05035C58.277 7.92081 58.2133 7.80013 58.1281 7.6952C58.0429 7.59027 57.9379 7.50315 57.8191 7.4388C57.7002 7.37446 57.5698 7.33416 57.4354 7.3202C57.301 7.30624 57.1651 7.3189 57.0356 7.35745C56.906 7.396 56.7853 7.45968 56.6804 7.54487C56.5755 7.63006 56.4883 7.73508 56.424 7.85394C56.3597 7.9728 56.3194 8.10317 56.3054 8.2376L55.9411 11.7451C55.9129 12.0166 55.9937 12.2882 56.1657 12.5001C56.3378 12.7121 56.587 12.847 56.8585 12.8752Z" fill="#1E304E"/>
<path d="M66.4091 18.8329L63.092 18.4105C62.8218 18.3774 62.5496 18.4526 62.3348 18.6197C62.12 18.7868 61.9801 19.0322 61.9457 19.3022C61.9114 19.5721 61.9854 19.8447 62.1515 20.0603C62.3176 20.2759 62.5623 20.4169 62.8322 20.4525C62.8322 20.4525 66.2372 20.8832 66.2804 20.8832C66.542 20.8828 66.7936 20.7829 66.9842 20.6037C67.1747 20.4245 67.2899 20.1794 67.3063 19.9184C67.3227 19.6573 67.239 19.3998 67.0724 19.1982C66.9057 18.9965 66.6686 18.8659 66.4091 18.8329L66.4091 18.8329Z" fill="#1E304E"/>
<path d="M63.9077 30.2774L58.1955 22.9697C58.8122 22.3095 59.2015 21.4693 59.3064 20.572C59.3775 19.921 59.319 19.2623 59.1344 18.6339C58.9498 18.0055 58.6426 17.4199 58.2307 16.9107C57.5622 16.0296 56.611 15.4051 55.5367 15.1421C54.4624 14.8792 53.3303 14.9937 52.3305 15.4664L47.0811 8.7508C46.8589 8.46852 46.558 8.25862 46.2163 8.14777C45.8747 8.03692 45.5078 8.03012 45.1623 8.12822C44.8167 8.22633 44.5082 8.42492 44.2757 8.69877C44.0433 8.97262 43.8976 9.30937 43.8569 9.66625C43.5453 12.4757 42.7491 19.606 35.1368 28.0084C34.8868 27.8549 34.607 27.7562 34.316 27.719C34.0445 27.6852 33.769 27.707 33.5062 27.7833C33.2435 27.8595 32.999 27.9884 32.7877 28.1623L26.5297 33.2771C26.1465 33.6038 25.8891 34.0538 25.8016 34.5497C25.7141 35.0456 25.8021 35.5565 26.0503 35.9946C25.7695 36.197 25.4838 36.3996 25.1933 36.6024C24.8996 36.826 24.6531 37.1057 24.4683 37.4253C24.2835 37.7449 24.164 38.098 24.1167 38.4642C24.0694 38.8303 24.0953 39.2022 24.1928 39.5583C24.2903 39.9143 24.4576 40.2475 24.6848 40.5384L27.6494 44.3312C27.8769 44.624 28.1608 44.8684 28.4843 45.0498C28.8077 45.2312 29.1642 45.346 29.5328 45.3874C29.9013 45.4289 30.2744 45.3961 30.6301 45.2911C30.9857 45.1861 31.3168 45.011 31.6037 44.776C31.8762 44.5297 32.1474 44.2892 32.4172 44.0545C32.8208 44.2791 33.2581 44.4369 33.7122 44.5217C34.1249 44.5196 34.5269 44.3898 34.863 44.1501C35.887 44.6008 37.0959 45.1696 38.1841 45.711C40.5777 46.773 41.9949 49.5715 42.4929 50.725C42.5921 50.9504 42.7495 51.1452 42.949 51.2894C43.1486 51.4337 43.383 51.522 43.6281 51.5454C43.8732 51.5688 44.1201 51.5264 44.3433 51.4225C44.5665 51.3186 44.758 51.1571 44.898 50.9545L47.9954 46.144C48.0957 45.9775 48.1615 45.7926 48.1889 45.6001C48.2163 45.4077 48.2047 45.2117 48.1548 45.0238C48.105 44.8359 48.0178 44.66 47.8986 44.5065C47.7793 44.3529 47.6304 44.225 47.4607 44.1302C45.0082 42.8386 42.1713 41.7324 40.0378 39.9374L41.2477 38.9483C41.4944 38.7417 41.6908 38.4814 41.8217 38.1874C41.9526 37.8934 42.0146 37.5734 42.003 37.2518C51.9679 31.8016 59.336 32.79 62.2317 33.1821C62.5882 33.231 62.9512 33.1725 63.2743 33.0141C63.5975 32.8558 63.8661 32.6047 64.0459 32.2931C64.2258 31.9814 64.3087 31.6232 64.2841 31.2642C64.2595 30.9052 64.1284 30.5616 63.9077 30.2774ZM56.6205 18.1933C56.9858 18.6183 57.2083 19.1474 57.2566 19.7057C57.3049 20.264 57.1765 20.8234 56.8896 21.3048C55.8458 19.896 54.7273 18.5327 53.6464 17.15C54.1897 17.0091 54.7627 17.0331 55.2923 17.2189C55.8219 17.4047 56.2843 17.7439 56.6205 18.1933ZM30.2234 43.2487C30.0717 43.3478 29.8874 43.3838 29.7096 43.3491C29.5318 43.3145 29.3745 43.2119 29.2711 43.0631L26.3066 39.2704C26.1881 39.1308 26.1284 38.9506 26.1403 38.7679C26.1521 38.5852 26.2346 38.4142 26.3702 38.2911C26.6837 38.0726 26.9826 37.8502 27.288 37.6296L31.0961 42.4759C30.8065 42.7278 30.5158 42.9844 30.2233 43.2487H30.2234ZM33.7117 42.4631L27.8444 35.0062C27.8294 34.9874 27.8202 34.9646 27.8181 34.9406C27.8159 34.9166 27.8209 34.8925 27.8323 34.8713L34.0662 29.7625C36.0083 32.2308 37.9504 34.699 39.8925 37.1672C39.9759 37.2731 39.9521 37.3502 39.8538 37.4306C37.8052 39.1066 35.7578 40.784 33.7117 42.4631H33.7117ZM41.6013 43.3705L45.8815 45.6251L43.8436 48.7896C42.9931 47.1884 41.4289 44.8988 39.0603 43.8487C38.5916 43.6153 37.6688 43.1619 36.6603 42.6979L38.422 41.258C39.3764 42.1091 40.4468 42.8204 41.6012 43.3705H41.6013ZM41.1124 35.3886L36.5057 29.5256C41.8114 23.6767 44.9407 17.3103 45.8304 10.4935L61.9086 31.0625C58.4921 30.624 50.9805 30.0156 41.1124 35.3886Z" fill="#1E304E"/>
<path d="M34.5196 36.918C34.9645 36.5698 35.0428 35.9268 34.6946 35.482C34.3464 35.0371 33.7035 34.9588 33.2586 35.307C32.8138 35.6552 32.7354 36.2981 33.0836 36.743C33.4319 37.1879 34.0748 37.2662 34.5196 36.918Z" fill="#1E304E"/>
<defs>
<filter id="filter0_b" x="-2" y="-2" width="64" height="64" filterUnits="userSpaceOnUse" color-interpolation-filters="sRGB">
<feFlood flood-opacity="0" result="BackgroundImageFix"/>
<feGaussianBlur in="BackgroundImage" stdDeviation="1"/>
<feComposite in2="SourceAlpha" operator="in" result="effect1_backgroundBlur"/>
<feBlend mode="normal" in="SourceGraphic" in2="effect1_backgroundBlur" result="shape"/>
</filter>
<linearGradient id="paint0_linear" x1="1.10357e-07" y1="33.7113" x2="60" y2="34.3299" gradientUnits="userSpaceOnUse">
<stop stop-color="#00AFF0"/>
<stop offset="1" stop-color="#00AFF0" stop-opacity="0"/>
</linearGradient>
</defs>
</svg>
